<?xml version="1.0" standalone="no"?>
<!DOCTYPE svg PUBLIC "-//W3C//DTD SVG 20010904//EN"
 "http://www.w3.org/TR/2001/REC-SVG-20010904/DTD/svg10.dtd">
<svg version="1.0" xmlns="http://www.w3.org/2000/svg"
 width="199.000000pt" height="199.000000pt" viewBox="0 0 199.000000 199.000000"
 preserveAspectRatio="xMidYMid meet">
<metadata>
Created by potrace 1.11, written by Peter Selinger 2001-2013
</metadata>
<g transform="translate(0.000000,199.000000) scale(0.100000,-0.100000)"
fill="#000000" stroke="none">
<path d="M1120 1571 l-25 -7 -3 -535 -2 -536 25 -11 c31 -15 134 -16 169 -2
l26 10 0 249 c0 137 4 252 9 255 4 3 81 -109 171 -250 120 -188 169 -258 189
-266 42 -16 177 -6 198 14 16 16 16 20 1 51 -9 19 -89 145 -178 280 l-162 246
104 136 c194 255 229 307 226 334 -2 19 -11 27 -38 34 -47 12 -168 3 -185 -14
-7 -8 -84 -117 -171 -244 l-159 -230 -3 238 -2 238 -26 9 c-28 11 -126 12
-164 1z"/>
<path d="M137 1553 c-16 -18 -17 -59 -17 -530 0 -481 1 -511 18 -526 16 -15
47 -17 230 -17 225 0 286 8 369 47 64 30 136 107 157 170 18 53 21 141 6 195
-17 59 -69 120 -134 154 -51 27 -56 33 -38 38 12 4 39 27 61 52 96 109 70 291
-54 375 -69 47 -96 52 -345 56 -222 5 -236 4 -253 -14z m406 -167 c50 -21 70
-50 74 -109 3 -40 -1 -60 -16 -84 -33 -52 -60 -64 -165 -70 l-96 -6 0 142 0
141 85 0 c50 0 99 -6 118 -14z m57 -456 c96 -49 103 -196 11 -252 -31 -20 -53
-23 -153 -27 l-118 -3 0 157 0 158 110 -6 c81 -5 120 -12 150 -27z"/>
</g>
</svg>
